<svg width="96" height="96" xmlns="http://www.w3.org/2000/svg" xmlns:xlink="http://www.w3.org/1999/xlink" xml:space="preserve" overflow="hidden"><g transform="translate(-713 -97)"><path d="M730.4 114C728.511 114.011 726.989 115.551 727 117.44 727 117.44 727 117.44 727 117.44L727 158.78 727 158.78C726.989 160.669 728.511 162.209 730.4 162.22 730.4 162.22 730.4 162.22 730.4 162.22L740.6 162.22 740.6 176 754.2 162.22 791.6 162.22C793.489 162.209 795.011 160.669 795 158.78 795 158.78 795 158.78 795 158.78L795 117.44 795 117.44C795.011 115.551 793.489 114.011 791.6 114 791.6 114 791.6 114 791.6 114ZM772 138C772 135.239 774.239 133 777 133 779.761 133 782 135.239 782 138 782 140.761 779.761 143 777 143 774.239 143 772 140.761 772 138ZM756 138C756 135.239 758.239 133 761 133 763.761 133 766 135.239 766 138 766 140.761 763.761 143 761 143 758.239 143 756 140.761 756 138ZM740 138C740 135.239 742.239 133 745 133 747.761 133 750 135.239 750 138 750 140.761 747.761 143 745 143 742.239 143 740 140.761 740 138Z" fill="#FFFFFF"/></g></svg>